<svg width="42" height="44" viewBox="0 0 42 44" fill="none" xmlns="http://www.w3.org/2000/svg">
<path d="M35.7587 21.7103V9.68965" stroke="#AF52DE" stroke-width="2" stroke-miterlimit="10" stroke-linecap="round" stroke-linejoin="round"/>
<path d="M27.0689 1H5.34473V21.7103" stroke="#AF52DE" stroke-width="2" stroke-miterlimit="10" stroke-linecap="round" stroke-linejoin="round"/>
<path d="M27.069 1L35.7282 9.68966H27.069V4.62069" stroke="#AF52DE" stroke-width="2" stroke-miterlimit="10" stroke-linecap="round" stroke-linejoin="round"/>
<path d="M27.7931 27.9539L40.1034 18.3793V43H1V18.3793L13.3886 28.0147" stroke="#AF52DE" stroke-width="2" stroke-miterlimit="10" stroke-linecap="round" stroke-linejoin="round"/>
<path d="M1 40.8276L20.5517 27.069L40.1034 40.8276" stroke="#AF52DE" stroke-width="2" stroke-miterlimit="10" stroke-linecap="round" stroke-linejoin="round"/>
<path d="M35.7515 14.8339L40.1035 18.3793" stroke="#AF52DE" stroke-width="2" stroke-miterlimit="10" stroke-linecap="round" stroke-linejoin="round"/>
<path d="M1 18.3793L5.34483 14.8397" stroke="#AF52DE" stroke-width="2" stroke-miterlimit="10" stroke-linecap="round" stroke-linejoin="round"/>
<path d="M19.1035 19.858C19.1035 19.0615 19.7552 18.4097 20.5518 18.4097C21.3483 18.4097 22.0001 19.0615 22.0001 19.858" stroke="#AF52DE" stroke-width="2" stroke-miterlimit="10" stroke-linecap="round" stroke-linejoin="round"/>
<path d="M27.0689 16.2069C27.4599 16.2069 27.793 16.54 27.793 16.931C27.793 17.3221 27.4599 17.6552 27.0689 17.6552C26.6778 17.6552 26.3447 17.3221 26.3447 16.931C26.3447 16.54 26.6778 16.2069 27.0689 16.2069Z" stroke="#AF52DE" stroke-width="2" stroke-miterlimit="10" stroke-linecap="round" stroke-linejoin="round"/>
<path d="M14.0346 16.2069C14.4256 16.2069 14.7587 16.54 14.7587 16.931C14.7587 17.3221 14.4256 17.6552 14.0346 17.6552C13.6435 17.6552 13.3104 17.3221 13.3104 16.931C13.3104 16.54 13.6435 16.2069 14.0346 16.2069Z" stroke="#AF52DE" stroke-width="2" stroke-miterlimit="10" stroke-linecap="round" stroke-linejoin="round"/>
<path d="M35.7587 21.7103V9.68965" stroke="#AF52DE" stroke-width="2" stroke-miterlimit="10" stroke-linecap="round" stroke-linejoin="round"/>
<path d="M27.0689 1H5.34473V21.7103" stroke="#AF52DE" stroke-width="2" stroke-miterlimit="10" stroke-linecap="round" stroke-linejoin="round"/>
<path d="M27.069 1L35.7282 9.68966H27.069V4.62069" stroke="#AF52DE" stroke-width="2" stroke-miterlimit="10" stroke-linecap="round" stroke-linejoin="round"/>
<path d="M27.7931 27.9539L40.1034 18.3793V43H1V18.3793L13.3886 28.0147" stroke="#AF52DE" stroke-width="2" stroke-miterlimit="10" stroke-linecap="round" stroke-linejoin="round"/>
<path d="M1 40.8276L20.5517 27.069L40.1034 40.8276" stroke="#AF52DE" stroke-width="2" stroke-miterlimit="10" stroke-linecap="round" stroke-linejoin="round"/>
<path d="M35.7515 14.8339L40.1035 18.3793" stroke="#AF52DE" stroke-width="2" stroke-miterlimit="10" stroke-linecap="round" stroke-linejoin="round"/>
<path d="M1 18.3793L5.34483 14.8397" stroke="#AF52DE" stroke-width="2" stroke-miterlimit="10" stroke-linecap="round" stroke-linejoin="round"/>
<path d="M19.1035 19.858C19.1035 19.0615 19.7552 18.4097 20.5518 18.4097C21.3483 18.4097 22.0001 19.0615 22.0001 19.858" stroke="#AF52DE" stroke-width="2" stroke-miterlimit="10" stroke-linecap="round" stroke-linejoin="round"/>
<path d="M27.0689 16.2069C27.4599 16.2069 27.793 16.54 27.793 16.931C27.793 17.3221 27.4599 17.6552 27.0689 17.6552C26.6778 17.6552 26.3447 17.3221 26.3447 16.931C26.3447 16.54 26.6778 16.2069 27.0689 16.2069Z" stroke="#AF52DE" stroke-width="2" stroke-miterlimit="10" stroke-linecap="round" stroke-linejoin="round"/>
<path d="M14.0346 16.2069C14.4256 16.2069 14.7587 16.54 14.7587 16.931C14.7587 17.3221 14.4256 17.6552 14.0346 17.6552C13.6435 17.6552 13.3104 17.3221 13.3104 16.931C13.3104 16.54 13.6435 16.2069 14.0346 16.2069Z" stroke="#AF52DE" stroke-width="2" stroke-miterlimit="10" stroke-linecap="round" stroke-linejoin="round"/>
</svg>
